<svg width="54" height="68" viewBox="0 0 54 68" fill="none" xmlns="http://www.w3.org/2000/svg">
<path d="M7.00004 67.3333C5.16671 67.3333 3.59782 66.6811 2.29337 65.3767C0.986707 64.07 0.333374 62.5 0.333374 60.6667V20.6667C0.333374 18.8333 0.986707 17.2644 2.29337 15.96C3.59782 14.6533 5.16671 14 7.00004 14H13.6667C13.6667 10.3333 14.9723 7.19444 17.5834 4.58333C20.1945 1.97222 23.3334 0.666664 27 0.666664C30.6667 0.666664 33.8056 1.97222 36.4167 4.58333C39.0278 7.19444 40.3334 10.3333 40.3334 14H47C48.8334 14 50.4034 14.6533 51.71 15.96C53.0145 17.2644 53.6667 18.8333 53.6667 20.6667V60.6667C53.6667 62.5 53.0145 64.07 51.71 65.3767C50.4034 66.6811 48.8334 67.3333 47 67.3333H7.00004ZM7.00004 60.6667H47V20.6667H40.3334V27.3333C40.3334 28.2778 40.0145 29.0689 39.3767 29.7067C38.7367 30.3467 37.9445 30.6667 37 30.6667C36.0556 30.6667 35.2645 30.3467 34.6267 29.7067C33.9867 29.0689 33.6667 28.2778 33.6667 27.3333V20.6667H20.3334V27.3333C20.3334 28.2778 20.0145 29.0689 19.3767 29.7067C18.7367 30.3467 17.9445 30.6667 17 30.6667C16.0556 30.6667 15.2645 30.3467 14.6267 29.7067C13.9867 29.0689 13.6667 28.2778 13.6667 27.3333V20.6667H7.00004V60.6667ZM20.3334 14H33.6667C33.6667 12.1667 33.0145 10.5978 31.71 9.29333C30.4034 7.98666 28.8334 7.33333 27 7.33333C25.1667 7.33333 23.5978 7.98666 22.2934 9.29333C20.9867 10.5978 20.3334 12.1667 20.3334 14ZM7.00004 60.6667V20.6667V60.6667Z" fill="#8B9D93"/>
</svg>
