<svg width="27" height="27" viewBox="0 0 27 27" fill="none" xmlns="http://www.w3.org/2000/svg">
<path d="M1 3.77777H6.55556M26 3.77777H12.1111M1 13.5H17.6667M26 13.5H23.2222M1 23.2222H3.77778M26 23.2222H9.33333" stroke="#8B9D93" stroke-width="2" stroke-linecap="round"/>
<path d="M9.33332 6.55556C10.8674 6.55556 12.1111 5.3119 12.1111 3.77778C12.1111 2.24365 10.8674 1 9.33332 1C7.7992 1 6.55554 2.24365 6.55554 3.77778C6.55554 5.3119 7.7992 6.55556 9.33332 6.55556Z" stroke="#8B9D93" stroke-width="2" stroke-linecap="round"/>
<path d="M20.4444 16.2778C21.9785 16.2778 23.2222 15.0341 23.2222 13.5C23.2222 11.9659 21.9785 10.7222 20.4444 10.7222C18.9103 10.7222 17.6666 11.9659 17.6666 13.5C17.6666 15.0341 18.9103 16.2778 20.4444 16.2778Z" stroke="#8B9D93" stroke-width="2" stroke-linecap="round"/>
<path d="M6.55561 26C8.08973 26 9.33339 24.7563 9.33339 23.2222C9.33339 21.6881 8.08973 20.4444 6.55561 20.4444C5.02149 20.4444 3.77783 21.6881 3.77783 23.2222C3.77783 24.7563 5.02149 26 6.55561 26Z" stroke="#8B9D93" stroke-width="2" stroke-linecap="round"/>
</svg>
