<svg width="25" height="25" viewBox="0 0 25 25" fill="none" xmlns="http://www.w3.org/2000/svg">
<path d="M22.2222 13.8889H2.77778C1.25 13.8889 0 15.1389 0 16.6667V22.2222C0 23.75 1.25 25 2.77778 25H22.2222C23.75 25 25 23.75 25 22.2222V16.6667C25 15.1389 23.75 13.8889 22.2222 13.8889ZM22.2222 22.2222H2.77778V16.6667H22.2222V22.2222ZM22.2222 0H2.77778C1.25 0 0 1.25 0 2.77778V8.33333C0 9.86111 1.25 11.1111 2.77778 11.1111H22.2222C23.75 11.1111 25 9.86111 25 8.33333V2.77778C25 1.25 23.75 0 22.2222 0ZM22.2222 8.33333H2.77778V2.77778H22.2222V8.33333Z" fill="#C0C0C0"/>
</svg>
