<svg width="17" height="17" viewBox="0 0 17 17" fill="none" xmlns="http://www.w3.org/2000/svg">
<path d="M16.8553 16.1564L13.1529 12.4457C14.4348 10.9803 15.0971 9.07398 14.9997 7.1294C14.9024 5.18481 14.0531 3.35418 12.6312 2.02409C11.2094 0.694001 9.32621 -0.031413 7.37946 0.00104403C5.43272 0.0335011 3.57479 0.821288 2.19804 2.19804C0.821288 3.57479 0.0335011 5.43272 0.00104403 7.37946C-0.031413 9.32621 0.694001 11.2094 2.02409 12.6312C3.35418 14.0531 5.18481 14.9024 7.1294 14.9997C9.07398 15.0971 10.9803 14.4348 12.4457 13.1529L16.1564 16.8553C16.2491 16.9479 16.3748 17 16.5058 17C16.6369 17 16.7626 16.9479 16.8553 16.8553C16.9479 16.7626 17 16.6369 17 16.5058C17 16.3748 16.9479 16.2491 16.8553 16.1564ZM1.03078 7.52031C1.03078 6.2368 1.41138 4.98212 2.12446 3.91492C2.83754 2.84772 3.85107 2.01594 5.03688 1.52477C6.22268 1.03359 7.52751 0.905073 8.78636 1.15547C10.0452 1.40587 11.2015 2.02394 12.1091 2.93152C13.0167 3.8391 13.6348 4.99542 13.8852 6.25427C14.1356 7.51311 14.007 8.81794 13.5159 10.0037C13.0247 11.1896 12.1929 12.2031 11.1257 12.9162C10.0585 13.6292 8.80382 14.0098 7.52031 14.0098C5.79986 14.0076 4.1505 13.3232 2.93395 12.1067C1.7174 10.8901 1.03298 9.24077 1.03078 7.52031Z" fill="#CCCCCC"/>
</svg>
